<?xml version="1.0" encoding="UTF-8"?><svg id="_レイヤー_2" xmlns="http://www.w3.org/2000/svg" viewBox="0 0 1022.26 169.61"><defs><style>.cls-1{fill:#fffdf1;}</style></defs><g id="_レイヤー_1-2"><path class="cls-1" d="M182.89,95.2c-19-12.74-28.97-35.57-25.41-58.16.14-.86.25-1.75.32-2.66v-.17c.08-.89.11-1.65.11-2.37v-.1c0-17.5-14.24-31.74-31.74-31.74-14.33,0-26.93,9.67-30.65,23.51-3.03,10.21-9.81,18.73-19.08,23.98-4.33,2.45-9.69,1.48-12.74-2.31-3.41-4.24-5.41-9.34-5.8-14.76,0-.09-.02-.18-.03-.28-.02-.2-.04-.39-.07-.56v-.1c-.05-.3-.1-.63-.16-.96-.04-.19-.08-.37-.12-.55l-.02-.07c-.06-.26-.14-.6-.25-.95-.06-.2-.13-.4-.19-.6-.12-.35-.22-.63-.33-.89-.09-.23-.18-.44-.26-.61-.13-.29-.26-.56-.39-.8-.1-.2-.22-.41-.35-.64-.14-.24-.28-.47-.42-.68-.15-.23-.3-.45-.45-.67-.13-.18-.27-.37-.42-.56-.2-.25-.38-.48-.57-.69-.13-.15-.27-.3-.41-.45-.25-.27-.47-.49-.69-.7-.11-.11-.23-.21-.38-.35-.3-.27-.55-.48-.8-.68-.09-.07-.18-.14-.28-.21l-.08-.06c-.35-.26-.63-.46-.9-.63-.09-.06-.17-.11-.26-.16l-.09-.06c-.28-.17-.62-.37-.99-.57-.09-.05-.18-.09-.28-.13l-.13.27h0l.03-.32c-.32-.16-.67-.32-1.03-.47-.11-.04-.21-.08-.35-.13l-.09-.03c-.31-.12-.66-.25-1.03-.36-.14-.04-.28-.08-.42-.11l-.28-.07c-.25-.07-.53-.14-.82-.2-.23-.04-.44-.07-.63-.1l-.41-.06c-.16-.03-.34-.05-.54-.07-.56-.05-1.11-.08-1.64-.08-9.14,0-16.57,7.43-16.57,16.57,0,.24,0,.48.02.74.49,11.37-6.31,21.79-16.91,25.93C4.02,59.82.06,63.94,0,69.7c-.06,5.36,3.45,10.26,8.53,11.91,3.59,1.16,7.45.65,10.6-1.41,3.18-2.08,5.21-5.4,5.58-9.11.46-4.64,2.13-9.09,4.85-12.87,2.05-2.86,5.31-4.28,8.7-3.82,3.36.46,6.08,2.69,7.26,5.95,1.23,3.39,1.76,6.94,1.56,10.55-.02.36-.03.75-.03,1.14,0,11.13,9.05,20.18,20.18,20.18.56,0,1.14-.03,1.88-.1.12-.01.24-.02.36-.04.62-.07,1.19-.16,1.75-.27.07-.01.14-.03.21-.05h.06c.49-.12,1.01-.25,1.52-.41l.14-.04c.07-.02.14-.04.21-.06.54-.17,1.08-.37,1.61-.59.09-.04.17-.07.25-.11l.1-.04c.44-.19.88-.4,1.3-.63l.09-.05c.08-.04.16-.08.25-.13.45-.25.91-.53,1.37-.83.14-.09.28-.19.41-.29l.08-.06c.29-.2.58-.42.87-.65.26-.2.48-.39.7-.57.32-.27.59-.52.84-.76.25-.24.48-.48.67-.69.13-.14.25-.28.38-.41.46-.51.89-1.04,1.28-1.58l.04-.05c.04-.05.08-.11.12-.17.18-.25.36-.52.59-.88.04-.06.08-.12.12-.19,3.91-6.28,9.45-11.39,16.02-14.78,3.26-1.68,7-1.94,10.52-.73,3.54,1.22,6.47,3.86,8.04,7.25,6.17,13.37,7.13,28.46,2.69,42.49-1.39,4.39-2,9-1.83,13.72.38,10.31,4.69,20.02,12.14,27.35,7.45,7.33,17.23,11.49,27.54,11.72.31,0,.61,0,.92,0,10.66,0,20.74-4.12,28.38-11.59,7.89-7.71,12.23-18.02,12.23-29.03,0-13.54-6.78-26.18-18.14-33.79ZM125.75,118.11c4.76-15.05,3.73-31.24-2.89-45.58-2.05-4.44-5.89-7.91-10.54-9.51-1.9-.66-3.87-.99-5.84-.99-2.81,0-5.52.66-8.04,1.96-7.26,3.75-13.38,9.39-17.73,16.38l-.09.13c-.17.27-.31.48-.48.71l-.09.12c-.31.43-.65.85-1.01,1.25-.1.11-.2.22-.29.32-.16.17-.34.36-.53.54-.19.18-.41.38-.66.6-.16.14-.34.29-.55.45-.23.18-.47.36-.69.51l-.08.06c-.1.07-.2.14-.31.21-.37.24-.73.46-1.08.65l-.27.14c-.33.17-.67.34-1.02.49l-.27.12c-.41.17-.83.33-1.26.46l-.28.08c-.4.12-.8.22-1.19.31l-.21.05c-.43.09-.88.15-1.37.21l-.32.03c-.56.05-1.02.07-1.45.07-8.76,0-15.89-7.13-15.89-15.89,0-.31,0-.61.02-.89.23-4.19-.37-8.32-1.81-12.26-1.74-4.78-5.74-8.05-10.71-8.73-5.01-.69-9.78,1.39-12.78,5.57-3.15,4.4-5.1,9.57-5.63,14.95-.24,2.41-1.57,4.58-3.66,5.94-2.08,1.36-4.54,1.69-6.92.92-3.31-1.07-5.6-4.27-5.56-7.77.04-3.77,2.63-6.46,5.18-7.46,12.31-4.81,20.2-16.91,19.64-30.11,0-.2-.01-.38-.01-.56,0-6.77,5.51-12.28,12.28-12.28.4,0,.81.02,1.22.06.09,0,.19.03.32.05l.49.07c.14.02.26.04.37.06.17.03.36.09.57.14l.31.08.09.02c.05.01.1.03.16.04.24.07.48.16.76.27l.14.05.07.03s.07.02.11.04c.24.1.48.21.76.35l.28.13c.26.13.51.29.73.42l.26.16c.19.12.4.27.67.47l.27.2c.18.14.36.3.6.51l.05.04c.08.07.16.14.24.22.15.15.31.31.51.52.1.11.21.22.3.33.13.15.27.32.42.52.12.15.22.29.31.42.11.16.22.32.34.5.1.16.2.33.31.51.1.17.18.33.26.47.09.18.18.37.28.59.07.15.13.3.2.45.08.19.15.4.25.7.05.13.09.27.13.4.07.25.13.51.18.7l.02.1c.03.12.06.24.08.35.04.21.07.44.11.71l.02.15c.02.12.03.24.04.35,0,.08.02.15.03.22.45,6.28,2.78,12.2,6.73,17.12,2.69,3.35,6.71,5.27,11.02,5.27h0c2.5,0,4.98-.66,7.18-1.91,10.25-5.81,17.74-15.23,21.1-26.58,3.21-11.99,14.11-20.36,26.51-20.36,15.11,0,27.42,12.29,27.44,27.39v.1s0,.07,0,.07c0,.61-.03,1.25-.08,2.03v.15c-.07.79-.17,1.57-.29,2.32-1.88,11.94-.32,24.1,4.52,35.18,4.84,11.08,12.7,20.49,22.74,27.23,10.17,6.82,16.24,18.12,16.24,30.23,0,9.84-3.88,19.06-10.94,25.96-7.05,6.9-16.37,10.57-26.2,10.36-19.19-.42-34.78-15.77-35.48-34.93-.15-4.22.39-8.35,1.63-12.27Z"/><path class="cls-1" d="M345.56,128.06h-20.67s0-62.29,0-62.29l-24.61,49.22c-2.65,5.3-7.97,8.58-13.89,8.58-5.92,0-11.24-3.29-13.89-8.58l-24.61-49.22v62.29s-20.67,0-20.67,0v-63.45c0-11.25,9.15-20.4,20.4-20.4,7.78,0,14.77,4.32,18.24,11.27l20.53,41.06,20.53-41.06c3.47-6.95,10.47-11.27,18.24-11.27,11.25,0,20.4,9.15,20.4,20.4v63.45ZM329.48,123.47h11.49s0-58.86,0-58.86c0-8.71-7.09-15.8-15.8-15.8-6.03,0-11.44,3.35-14.13,8.73l-24.64,49.28-24.64-49.28c-2.69-5.39-8.11-8.74-14.13-8.74-8.71,0-15.8,7.09-15.8,15.8v58.86s11.49,0,11.49,0v-58.86c0-2.38,1.94-4.32,4.32-4.32,1.65,0,3.13.91,3.86,2.39l25.13,50.26c1.86,3.73,5.61,6.05,9.78,6.05,4.17,0,7.92-2.32,9.78-6.05l25.13-50.27c.73-1.47,2.21-2.38,3.86-2.38,2.38,0,4.32,1.94,4.32,4.32v58.86Z"/><path class="cls-1" d="M372.7,128.06c-12.43,0-22.55-10.11-22.55-22.54v-40.7c0-12.43,10.11-22.54,22.55-22.54h71.42s0,20.67,0,20.67h-71.42c-1.03,0-1.87.84-1.87,1.87v40.7c0,1.03.84,1.87,1.87,1.87,1.03,0,1.87-.84,1.87-1.87v-16.28c0-12.43,10.11-22.54,22.55-22.54h30.72s0,20.67,0,20.67h-30.72c-1.03,0-1.87.84-1.87,1.87v16.28c0,12.43-10.11,22.54-22.55,22.54ZM372.7,46.87c-9.9,0-17.95,8.05-17.95,17.95v40.7c0,9.9,8.05,17.95,17.95,17.95,9.9,0,17.95-8.05,17.95-17.95v-16.28c0-3.56,2.9-6.47,6.47-6.47h26.13s0-11.49,0-11.49h-26.13c-9.9,0-17.95,8.05-17.95,17.95v16.28c0,3.56-2.9,6.47-6.47,6.47-3.57,0-6.47-2.9-6.47-6.47v-40.7c0-3.56,2.9-6.47,6.47-6.47h66.82s0-11.49,0-11.49h-66.82Z"/><path class="cls-1" d="M474.26,128.06h-51.4s0-20.67,0-20.67h51.4s0,20.67,0,20.67ZM427.46,123.47h42.21s0-11.49,0-11.49h-42.21s0,11.49,0,11.49Z"/><path class="cls-1" d="M787.66,128.53l-20.13-16.65-15.54-.1c-11.31,0-20.51-9.2-20.51-20.51,0-11.31,9.2-20.51,20.51-20.51h33.95c2.15,0,3.91-1.75,3.91-3.91,0-2.15-1.75-3.91-3.91-3.91h-52.91c-2.15,0-3.91,1.75-3.91,3.91v61.21s-20.67,0-20.67,0v-61.21c0-13.55,11.03-24.58,24.58-24.58h52.91c13.55,0,24.58,11.03,24.58,24.58,0,13.55-11.03,24.58-24.58,24.58h-14.79c3.92.71,7.55,2.54,10.48,5.34l19.18,15.8-13.15,15.96ZM713.05,123.47h11.49s0-56.61,0-56.61c0-4.69,3.81-8.5,8.5-8.5h52.91c4.69,0,8.5,3.81,8.5,8.5,0,4.69-3.81,8.5-8.5,8.5h-33.95c-8.78,0-15.92,7.14-15.92,15.92,0,8.78,7.14,15.92,15.92,15.92h15.5c1.18,0,2.3.46,3.13,1.3l16.42,13.57,7.3-8.86-15.76-12.99c-3.09-2.94-6.99-4.5-11.1-4.5h-15.5c-2.44,0-4.43-1.99-4.43-4.43,0-2.44,1.99-4.43,4.43-4.43h33.95c11.02,0,19.99-8.97,19.99-19.99,0-11.02-8.97-19.99-19.99-19.99h-52.91c-11.02,0-19.99,8.97-19.99,19.99v56.61Z"/><path class="cls-1" d="M576.8,128.06c-7.78,0-14.77-4.32-18.24-11.27l-20.53-46.89-20.48,46.78c-3.53,7.06-10.52,11.38-18.29,11.38-11.25,0-20.4-9.15-20.4-20.4V42.28s20.67,0,20.67,0v64.08s24.56-55.4,24.56-55.4c2.69-5.39,8.01-8.68,13.93-8.68h0c5.92,0,11.24,3.29,13.89,8.58l24.61,55.5V42.28s20.67,0,20.67,0v65.39c0,11.25-9.15,20.4-20.4,20.4ZM538.03,58.44l24.69,56.4c2.64,5.28,8.06,8.63,14.09,8.63,8.71,0,15.8-7.09,15.8-15.8v-60.8s-11.49,0-11.49,0v60.8c0,2.38-1.94,4.32-4.32,4.32-1.65,0-3.13-.91-3.86-2.39l-25.18-56.78c-1.82-3.63-5.57-5.95-9.73-5.95h0c-4.17,0-7.92,2.32-9.78,6.04l-25.09,56.59c-.78,1.57-2.26,2.48-3.91,2.48-2.38,0-4.32-1.94-4.32-4.32v-60.8s-11.49,0-11.49,0v60.8c0,8.71,7.09,15.8,15.8,15.8,6.03,0,11.44-3.35,14.13-8.74l24.64-56.29Z"/><path class="cls-1" d="M997.14,128.06h-76.77s0-20.67,0-20.67h76.77c2.45,0,4.45-2,4.45-4.45v-2.99c0-2.45-2-4.45-4.45-4.45h-51.64c-13.85,0-25.12-11.27-25.12-25.12v-2.99c0-13.85,11.27-25.12,25.12-25.12h76.77s0,20.67,0,20.67h-76.77c-2.45,0-4.45,2-4.45,4.45v2.99c0,2.45,2,4.45,4.45,4.45h51.64c13.85,0,25.12,11.27,25.12,25.12v2.99c0,13.85-11.27,25.12-25.12,25.12ZM924.97,123.47h72.17c11.32,0,20.53-9.21,20.53-20.53v-2.99c0-11.32-9.21-20.53-20.53-20.53h-51.64c-4.99,0-9.04-4.06-9.04-9.04v-2.99c0-4.99,4.06-9.04,9.04-9.04h72.17s0-11.49,0-11.49h-72.17c-11.32,0-20.53,9.21-20.53,20.53v2.99c0,11.32,9.21,20.53,20.53,20.53h51.64c4.99,0,9.04,4.06,9.04,9.04v2.99c0,4.99-4.06,9.04-9.04,9.04h-72.17s0,11.49,0,11.49Z"/><path class="cls-1" d="M835.79,128.31h-20.67s0-54.12,0-54.12c0-6.02,2.35-11.68,6.6-15.94l17.17-17.17,14.62,14.62-17.17,17.17c-.34.34-.55.84-.55,1.32v54.12ZM819.71,123.71h11.49s0-49.52,0-49.52c0-1.7.69-3.37,1.9-4.57l13.92-13.92-8.12-8.12-13.92,13.92c-3.39,3.39-5.26,7.9-5.26,12.69v49.52Z"/><path class="cls-1" d="M901.16,126.66l-14.33-14.33c-.36-.36-.82-.55-1.32-.55h-31.57c-12.43,0-22.55-10.11-22.55-22.55,0-12.43,10.11-22.55,22.55-22.55h23.43c.49,0,.98-.2,1.32-.55l22.47-22.47,14.62,14.62-22.47,22.47c-4.26,4.26-9.92,6.6-15.94,6.6h-23.43c-1.03,0-1.87.84-1.87,1.87s.84,1.87,1.87,1.87h31.57c6.02,0,11.68,2.34,15.94,6.6l14.33,14.33-14.62,14.62ZM853.94,71.29c-9.9,0-17.95,8.05-17.95,17.95,0,9.9,8.05,17.95,17.95,17.95h31.57c1.73,0,3.35.67,4.57,1.9l11.08,11.08,8.12-8.12-11.08-11.08c-3.39-3.39-7.9-5.26-12.69-5.26h-31.57c-3.57,0-6.47-2.9-6.47-6.47,0-3.57,2.9-6.47,6.47-6.47h23.43c4.79,0,9.3-1.87,12.69-5.26l19.22-19.22-8.12-8.12-19.22,19.22c-1.2,1.2-2.87,1.89-4.57,1.89h-23.43Z"/><path class="cls-1" d="M680.49,128.34h-30.3v-20.18l-4.65,8.27c-4.14,7.35-11.94,11.91-20.37,11.91-12.89,0-23.37-10.48-23.37-23.37v-39.16c0-12.89,10.48-23.37,23.37-23.37h30.3v13l.61-1.08c4.14-7.35,11.94-11.91,20.37-11.91h4.04c12.89,0,23.37,10.49,23.37,23.37v39.16c0,12.89-10.48,23.37-23.37,23.37ZM655.47,123.06h25.02c9.98,0,18.09-8.12,18.09-18.09v-39.16c0-9.98-8.12-18.09-18.09-18.09h-4.04c-6.52,0-12.57,3.53-15.77,9.22l-29.06,51.66c-1.31,2.33-3.78,3.78-6.45,3.78-4.08,0-7.41-3.32-7.41-7.4v-39.16c0-4.08,3.32-7.41,7.41-7.41h25.02v-10.69h-25.02c-9.98,0-18.09,8.12-18.09,18.09v39.16c0,9.98,8.12,18.09,18.09,18.09,6.53,0,12.57-3.53,15.77-9.22l29.06-51.66c1.31-2.33,3.78-3.78,6.45-3.78h4.04c4.08,0,7.41,3.32,7.41,7.41v39.16c0,4.08-3.32,7.4-7.41,7.4h-25.02v10.69ZM650.79,107.09h29.7c1.17,0,2.13-.95,2.13-2.12v-39.16c0-1.17-.95-2.13-2.13-2.13h-4.04c-.77,0-1.48.42-1.85,1.09l-23.81,42.33ZM625.17,63.68c-1.17,0-2.13.95-2.13,2.13v39.16c0,1.17.95,2.12,2.13,2.12.77,0,1.48-.41,1.85-1.08l23.81-42.33h-25.66Z"/></g></svg>