<?xml version="1.0" encoding="UTF-8"?><svg id="_レイヤー_2" xmlns="http://www.w3.org/2000/svg" viewBox="0 0 1348.38 144.71"><defs><style>.cls-1{fill:#d2541c;}</style></defs><g id="_レイヤー_1-2"><path class="cls-1" d="M778.51,144.28h-49.36v-28.49h49.36c4.69,0,8.5-3.82,8.5-8.5V37.42c0-4.69-3.82-8.51-8.5-8.51h-7.21c-3.07,0-5.91,1.66-7.41,4.34l-51.84,92.17c-6.55,11.63-18.9,18.85-32.24,18.85-20.4,0-36.99-16.59-36.99-36.99V37.42c0-20.4,16.59-36.99,36.99-36.99h49.35v28.49h-49.35c-4.69,0-8.5,3.82-8.5,8.51v69.87c0,4.69,3.82,8.5,8.5,8.5,3.07,0,5.91-1.66,7.41-4.34l51.84-92.17c6.55-11.63,18.9-18.86,32.24-18.86h7.21c20.4,0,36.99,16.6,36.99,36.99v69.87c0,20.4-16.59,36.99-36.99,36.99ZM201.53,35.93c0-17.68-14.39-32.07-32.07-32.07-12.23,0-23.22,6.79-28.68,17.73l-40.01,80.03L60.75,21.58C55.29,10.65,44.29,3.86,32.07,3.86,14.39,3.86,0,18.25,0,35.93v108.35h28.49V35.93c0-1.98,1.61-3.58,3.58-3.58,1.37,0,2.59.76,3.2,1.98l44.53,89.05c4,7.99,12.03,12.96,20.97,12.96s16.97-4.97,20.97-12.96l44.53-89.06c.61-1.22,1.84-1.98,3.2-1.98,1.98,0,3.58,1.61,3.58,3.58v108.35h28.49V35.93ZM285.49,108.41v-28.84c0-4.07,3.31-7.38,7.39-7.38h50.36v-28.49h-50.36c-19.78,0-35.87,16.09-35.87,35.87v28.84c0,4.07-3.31,7.38-7.39,7.38s-7.39-3.31-7.39-7.38V36.3c0-4.07,3.31-7.38,7.39-7.38h122.46V.43h-122.46c-19.78,0-35.87,16.09-35.87,35.87v72.1c0,19.78,16.09,35.87,35.87,35.87s35.87-16.09,35.87-35.87ZM422.55,115.79h-82.92v28.49h82.92v-28.49ZM851.2,39.91c0-6.06,4.93-10.99,10.99-10.99h93.73c6.06,0,10.99,4.93,10.99,10.99s-4.93,10.99-10.99,10.99h-60.16c-17.79,0-32.27,14.47-32.27,32.27s14.48,32.27,32.27,32.27h27.45c1.01,0,1.96.39,2.67,1.11l32.53,26.89,18.12-21.98-31.06-25.6c-6.03-5.75-13.9-8.91-22.26-8.91h-27.45c-2.08,0-3.78-1.7-3.78-3.78s1.7-3.78,3.78-3.78h60.16c21.77,0,39.48-17.71,39.48-39.48S977.69.43,955.93.43h-93.73c-21.77,0-39.48,17.71-39.48,39.48v104.37h28.49V39.91ZM433.72,112.22c0,17.68,14.39,32.07,32.07,32.07,12.23,0,23.22-6.79,28.68-17.73l40.02-91.4,40.01,91.4c5.47,10.93,16.46,17.73,28.68,17.73,17.68,0,32.07-14.39,32.07-32.07V.43h-28.49v111.78c0,1.97-1.61,3.58-3.58,3.58-1.37,0-2.59-.76-3.2-1.98l-44.52-100.43c-4-7.99-12.04-12.96-20.97-12.96-8.94,0-16.97,4.97-20.96,12.96l-44.53,100.43c-.61,1.22-1.84,1.98-3.2,1.98-1.97,0-3.58-1.61-3.58-3.58V.43h-28.49v111.78ZM1348.38,103.85v-5.3c0-22.3-18.14-40.44-40.44-40.44h-91.5c-6.59,0-11.95-5.36-11.95-11.95v-5.29c0-6.59,5.36-11.95,11.95-11.95h131.93V.43h-131.93c-22.3,0-40.44,18.14-40.44,40.44v5.29c0,22.3,18.14,40.44,40.44,40.44h91.5c6.59,0,11.95,5.36,11.95,11.95v5.3c0,6.59-5.36,11.95-11.95,11.95h-131.93v28.49h131.93c22.3,0,40.44-18.14,40.44-40.44ZM1058.47,20.14l-20.14-20.14-27.54,27.54c-6.77,6.78-10.51,15.79-10.51,25.37v91.81h28.49V52.91c0-1.95.79-3.85,2.16-5.22l27.54-27.54ZM1120.93,86.95h-55.93c-4.07,0-7.39-3.31-7.39-7.39s3.31-7.39,7.39-7.39h41.51c9.58,0,18.59-3.73,25.37-10.51l36.93-36.93-20.15-20.15-36.93,36.93c-1.37,1.38-3.28,2.16-5.22,2.16h-41.51c-19.78,0-35.87,16.09-35.87,35.87s16.09,35.87,35.87,35.87h55.93c1.97,0,3.83.77,5.22,2.16l22.5,22.5,20.15-20.15-22.51-22.51c-6.78-6.77-15.78-10.5-25.36-10.5Z"/></g></svg>