<?xml version="1.0" encoding="UTF-8"?><svg id="_レイヤー_2" xmlns="http://www.w3.org/2000/svg" viewBox="0 0 591.7 831.6"><defs><style>.cls-1{fill:#fffdf1;}.cls-2{fill:#c0511f;}</style></defs><g id="_レイヤー_2-2"><path class="cls-2" d="M477.95,345.5c-.43,1.6-1.89,2.65-3.47,2.65-.31,0-.63-.04-.95-.12-2.23-.61-4.47-1.2-6.72-1.77-.24,2.75-.65,5.55-1.26,8.38-4.86,21.75-19.1,41.1-37.99,52.73-4.71,2.81-9.74,5.12-15.01,6.4,4.95-2.2,9.48-5.08,13.65-8.37,18.29-14.57,32.43-37.33,33.62-60.87-5.69-1.36-11.45-2.64-17.28-3.81-2.68,14.19-14.08,61.73-47,61.75-39.1.01-39.33-56.99-38.72-71.8-6.87-.28-13.79-.47-20.78-.53-1.98-.02-3.58-1.65-3.56-3.64s1.65-3.54,3.63-3.56c43.95.4,85.46,5.16,123.66,14.16-.33-4.68-1.18-9.35-2.66-13.98-7.76-25.18-32.03-41.8-57.34-46.33-20.52-3.9-43.83-.81-59.93,13.48,15.02-16.54,39.25-21.13,60.7-18.21,35.65,4.53,65.53,31.65,66.49,66.82,2.82.71,5.62,1.44,8.4,2.2,1.92.52,3.05,2.5,2.52,4.42Z"/><path class="cls-2" d="M286.49,388.26c0,1.21-1.66,2.19-3.71,2.19s-3.7-.98-3.7-2.19,1.66-2.2,3.7-2.2,3.71.98,3.71,2.2Z"/><path class="cls-2" d="M415.77,417.19c-.82,5.36-2.31,10.54-4.46,15.51.82-5.35,2.32-10.53,4.46-15.51Z"/><path class="cls-2" d="M425.16,417.19c-.83,5.36-2.31,10.54-4.46,15.51.82-5.35,2.31-10.53,4.46-15.51Z"/><path class="cls-2" d="M434.54,417.19c-.82,5.36-2.31,10.54-4.46,15.51.83-5.35,2.32-10.53,4.46-15.51Z"/><path class="cls-2" d="M211.81,417.19c-.83,5.36-2.31,10.54-4.46,15.51.82-5.35,2.31-10.53,4.46-15.51Z"/><path class="cls-2" d="M310.12,408.18l-7.46-2.06s-.02-.01-.03-.01l-7.47-2.07c-.96-.26-1.96.3-2.23,1.27-.27.97.3,1.97,1.26,2.23l5.89,1.63c-.71,4.01-2.4,14.32-2.31,20.1.12,7.79,1.75,11.86,4.84,12.1.09,0,.17.01.26.01,2.86,0,5.25-3.67,6.29-9.68,1.57-9.16,2.26-21.16,2.29-21.67.05-.85-.51-1.62-1.33-1.85ZM305.58,431.09c-.72,4.19-2.06,6.14-2.66,6.58-.35-.44-1.42-2.27-1.52-8.45-.08-5.26,1.48-14.95,2.19-19.08l4.14,1.15c-.23,3.51-.92,12.67-2.15,19.8Z"/><path class="cls-2" d="M457.21,254.8c-29.19-11.48-60.44-17.08-91.79-16.55,30.25-4.86,65.13,1.43,91.79,16.55Z"/><path class="cls-2" d="M540.72,362.47c-.79.89-1.88,1.34-2.98,1.34-.95,0-1.91-.34-2.67-1.02-3.55-3.18-7.29-5.66-11.26-7.47-7.4,18.24-15.93,38.41-30.18,51.71-.78.73-1.76,1.08-2.73,1.08-1.07,0-2.14-.42-2.93-1.27-1.51-1.61-1.42-4.14.19-5.65,12.89-12.03,21.02-31.09,28.06-48.44-3.39-.79-6.95-1.15-10.69-1.09h-.07c-2.18,0-3.96-1.75-3.99-3.94-.04-2.21,1.72-4.03,3.93-4.06,13.41-.23,24.87,4.09,35.01,13.17,1.64,1.47,1.78,4,.31,5.64Z"/><path class="cls-2" d="M130.69,353.94c-10.76-59.41-7.68-116.21,8.73-170.56-9.63,53.9-12.14,110.93-8.73,170.56Z"/><path class="cls-2" d="M519.29,566.22c-16.25,0-31.78,5.78-44.08,16.33l-.64-.47c6.02-11.88,11.13-26.68,5.4-35.58-5.77-8.95-12.89-12.99-21.9-18.11l-1.09-.62c-1.23-.7-2.51-1.43-3.86-2.23-9.28-5.43-17.38-8.48-18.17-8.77-.9-.33-1.83-.5-2.78-.5-2.72,0-5.23,1.36-6.71,3.64l-2.41,3.72-32.27-24.13,5.56-5.73c1.48-1.51,2.3-3.61,2.26-5.74-.03-2.14-.96-4.2-2.52-5.67-5.45-5.14-11.68-9.5-18.62-13.03,26.74-6.46,51.9-17.56,73.46-32.46,2.2.27,7.01.75,13.6.75,12.86,0,32.34-1.84,52.11-10.61,17.51-7.78,31.46-17.96,41.46-30.25,9.04-11.11,14.46-23.64,15.69-36.23,1.1-11.14-1.14-21.72-6.33-30.41.22-.1.44-.21.65-.33.17-.1.32-.2.46-.3.12-.07.22-.15.33-.22l.11-.08.13-.1c.29-.23.53-.44.75-.66.15-.16.28-.29.39-.42.3-.35.56-.72.8-1.11.07-.11.14-.22.2-.33l.06-.11.02-.05.39-.73v-.04c1.84-3.63,8.24-16.99,13.28-36.41,7.35-28.29,8.64-56.14,3.84-82.79-5.67-31.51-19.91-77.94-55.52-120.17-34.41-40.83-80.27-67.65-136.29-79.71-20.24-4.35-41.1-6.56-61.99-6.56-31.96,0-63.83,5.01-94.72,14.9-31.34,10.04-52.62,22.11-60.24,26.78-33.69-8.83-65.85-13.5-93.1-13.5-17.97,0-33.71,1.97-46.77,5.85-13.32,3.96-23.55,9.82-30.41,17.42C3.15,58.87-.16,67.64,0,77.53c.15,9.59,3.6,19.81,10.25,30.37,6.53,10.39,18.93,22.92,34.91,35.28,17.25,13.33,37.68,25.69,59.3,35.89-4.35,9.19-8.15,18.83-11.31,28.71-11.5,36.02-12.34,67.08-11.02,86.79,1.43,21.44,6.22,40.16,13.01,51.39-36.31,1.27-65.47,31.21-65.47,67.84s30.46,67.88,67.88,67.88c14.82,0,29.18-4.85,40.95-13.75-3.16,6.14-5.67,11.84-6.91,15.8-3.47,11.07-2.32,20.36,3.42,27.67-16.66-13.22-34.14-16.06-46.06-16.06s-19.93,2.56-21.98,3.24c-16.76,3.88-30.88,20.22-38.77,44.87-7.9,24.69-8.75,54.51-2.41,83.97,6.36,29.59,19.48,56.89,36.94,76.88,6.64,7.61,13.61,13.77,20.74,18.32,2.26,10.39,10.13,36.08,32.51,36.26h.42c17.34,0,26.55-8.39,29.39-11.53,3.91-2.82,27.73-19.31,71.95-35.83,28.55-10.67,49.02-16.6,58.7-19.19,4.83,8.53,10.79,16.2,17.73,22.83,26.79,25.62,70.04,52.27,106.25,54.05,6.58.32,13.43.48,20.34.48s14.05-.17,20.48-.52c-2.68,10.65-3.75,26.53,6.64,41.11,9.8,13.75,25.39,21.32,43.91,21.32,6.67,0,13.53-1.06,19.83-3.07,9.89-3.16,18.31-8.49,24.37-15.4,5.58-6.37,9.04-13.95,10.1-22.06l3.82-1.69c1.98-.9,3.47-2.47,4.23-4.45.76-1.99.71-4.16-.16-6.12l-34.37-76.83c37.28-.18,67.55-30.56,67.55-67.88s-30.46-67.88-67.88-67.88ZM393.35,485.28c.09.09.19.19.27.29-.09-.1-.18-.2-.28-.29h.01ZM567.74,324.66s.03-.03.03-.04c0,.01,0,.03-.02.04,0,.01,0,.01,0,.01h0ZM13.64,105.77c-.3-.48-.59-.96-.88-1.44.29.48.59.96.89,1.44,1.09,1.73,2.37,3.56,3.85,5.47-1.48-1.91-2.78-3.74-3.86-5.47ZM41.38,37.86c1.56-.47,3.17-.9,4.83-1.31-1.66.41-3.27.85-4.83,1.31ZM51.3,35.4c1.74-.35,3.52-.68,5.34-.97-1.82.3-3.6.62-5.34.97ZM567.24,325.39c.04-.05.09-.1.13-.15-.04.05-.08.1-.12.15l-.05.05s.03-.03.04-.05ZM531.07,254.12c.31.59.63,1.18.96,1.79-.02-.02-.04-.05-.06-.07-.34-.42-1.03-1.27-2.08-2.5.47.31.87.58,1.18.78ZM525.76,260.9l24.44,44.64c-.15.62-.29,1.22-.42,1.82-.8,3.22-1.71,6.42-2.71,9.58-5.21-2.37-10.91-3.58-16.98-3.59-6.77-22.35-21.2-48.24-39.19-75.78,14.44,28.2,26.81,55.12,30.17,76.59-4.51.8-9.16,2.19-13.91,4.17-7.6-13.3-38.19-66.96-68.63-122.94,35.64,18.79,65.83,41.22,87.23,65.51ZM248.31,41.4c-3.22-3.39-9.22-4.5-14.82-5.18,4.4.38,8.73,1.05,12.94,2.09,5.43,1.24,11.52,3.98,10.23,9.34,1.83-3.17,3.66-6.16,5.41-8.98,2.48-4.02,4.67-7.73,7.15-11.16-1.09,3.45-2.78,7.19-4.49,11.26-1.2,2.86-2.5,5.9-3.99,9.13,2.17-2.68,5.69-4.93,9.5-6.07,4.68-1.49,9.16-1.82,13.93-2.22,6.47-.51,13.84-1.11,20.65-1.11-9.17.28-18.54,1.21-26.73,3.87-8.31,2.7-13.52,6.67-11.64,13.58.41,1.6,1.14,3.33,2.14,5.16.02.04.05.09.08.14.29.53.61,1.07.94,1.62.05.06.08.12.12.18.34.55.71,1.11,1.09,1.68.04.04.08.09.11.14,5.34,7.72,14.46,16.57,24.25,24.6-.59-.29-1.19-.58-1.78-.86-.47-.23-.94-.46-1.41-.69-9.79-7.11-17.85-13.81-24.25-20.24-.67-.68-1.31-1.36-1.96-2.03-.13-.15-.27-.3-.42-.45-.62-.67-1.23-1.33-1.83-2-.69-.73-1.35-1.47-1.97-2.22-2.09-2.52-3.6-5.23-2.99-8.51-.16.33-.31.66-.48,1-1.52,3.11-3.29,6.41-5.25,9.87-.5.89-1.02,1.8-1.54,2.71-.58,1.01-1.16,2.02-1.77,3.06-.3-.12-.6-.24-.9-.36-.77-.31-1.54-.63-2.31-.93,2.45-5.36,4.82-10.26,7.29-14.74.16-.28.32-.56.46-.83-3.93,4.48-10.77,8.27-18.43,11.43-1.11-.41-2.19-.81-3.3-1.22,6.97-3.4,12.27-7.03,16.37-12.51,2.88-3.5,1.61-6.44-.4-8.55ZM107.53,253.54c.37-4.99.86-10.09,1.46-15.27,3.65-31.01,21.02-67.85,34.5-92.62,55.1-10.07,118.87-7.57,182.73,7.83,16.42,3.96,32.48,8.71,48.02,14.12-17.38,6.64-34.9,16.3-52.42,28.92-26.91,19.42-53.21,45.33-78.16,77.01-.49.62-.96,1.23-1.44,1.85-.56.72-1.13,1.43-1.67,2.15-13.25,17.17-25.19,34.84-35.56,52.08-4.8,8-9.27,15.9-13.4,23.62-6.13,11.47-11.48,22.54-15.98,32.88-.73,1.71-1.46,3.4-2.15,5.07-2.31,5.54-4.35,10.84-6.14,15.87-.46.64-.71,1.39-.75,2.15-1.04,3.05-1.98,5.98-2.81,8.8-1.4-.59-2.83-1.22-4.27-1.91-6.31-14.46-10.23-32.96-13.78-55.17-.32-2.03-2.15-3.49-4.2-3.36-2.05.13-3.69,1.79-3.75,3.85l-.98,27.73c-8.72-18.21-17.17-50.25-16.39-66.14.1-1.86-1.11-3.53-2.9-4.04-1.79-.51-3.69.28-4.59,1.9l-4.38,7.89c-.72-6.87-1.7-18.55-2.04-33.21,2.2-33.43,7.76-65.71,16.13-97.01-7.81,17.53-12.65,35.93-15.08,55.01ZM180.26,423.4c-2.73-.65-5.77-1.49-9.02-2.58.41-1.36.83-2.75,1.28-4.17,2.51,2.31,5.09,4.57,7.74,6.75ZM148.65,410.22c-2.12-1.3-4.25-2.72-6.41-4.25,1.23-.67,2.03-1.94,2.08-3.37l.21-6.27c1.25,4.89,2.61,9.52,4.12,13.89ZM132.52,398.13c-4.78-4.31-9.49-9.28-14-15.04-8.84-11.3-12.39-27.78-8.7-40.22l3.39-6.09c2.65,20.06,10.99,46.79,19.31,61.35ZM137.11,453.42c-.4.25-.77.58-1.08.99,0,.02-.01.04-.02.06-10.03,9.47-23.57,15.21-38.44,15.21-30.81,0-55.88-25.07-55.88-55.88s25.07-55.89,55.88-55.89c1,0,1.99.03,2.98.09.91,10.61,4.96,21.45,11.67,30.02,13.02,16.63,27.5,27.19,40.64,33.9-1.77,12.33-7.47,23.23-15.75,31.5ZM152.09,452.56c-1.28,1.96-2.53,3.94-3.71,5.91l-3.07-2.24c1.55-1.75,3-3.57,4.35-5.46l2.43,1.79ZM138.3,682.61c-2.37,14.8-8.34,33.11-23.35,36.34-12.38,2.66-28.52-5.76-43.17-22.54-15.92-18.22-28.39-44.28-34.25-71.51-5.9-27.46-5.15-55.09,2.11-77.79,6.54-20.44,17.91-34.24,30.41-36.93,1.56-.33,3.09-.49,4.59-.49,13.12,0,24.14,11.96,31.35,22.64,11.5,17.01,21.33,42.54,27.64,71.9,6.36,29.59,8.02,57.42,4.67,78.38ZM142.95,744.54c.05-.06.09-.12.14-.17h.01s-.09.11-.15.17ZM144.26,617.31c-.81-4.86-1.74-9.79-2.81-14.76-6.52-30.34-16.76-56.87-28.84-74.7-6.2-9.19-12.8-16.02-19.62-20.39,10.71.68,23.85,4.19,36.31,14.76,30.31,25.74,22.02,71.41,14.96,95.09ZM220.04,586.3c-7.26-1.96-15.92-3.03-24.79-3.03s-20.98,1.03-32.94,5.5c2.88-28.54-3.37-52.06-18.19-68.79,11.18,8.74,25.65,15.97,29.01,17.61l.1.05h.03s.04.03.04.03c1.09.51,2.24.76,3.4.76,2.6,0,5.05-1.27,6.55-3.39l1.48-2.09,48.55,28.76-13.24,24.59ZM235.24,447.35c-.48-.34-1.01-.55-1.56-.65-12.01-5.11-23.42-11.27-34-18.43,1.24-3.6,2.16-7.29,2.75-11.08-1.48,3.43-2.65,6.96-3.5,10.57-.4-.28-.82-.57-1.21-.85-.41-.44-.91-.79-1.48-1.02-1.46-1.03-2.9-2.08-4.31-3.14.45-1.83.81-3.69,1.1-5.56-.69,1.63-1.32,3.29-1.88,4.96-5.58-4.23-10.89-8.77-15.91-13.57,1.2-3.33,2.5-6.79,3.94-10.35,2.73,3.01,5.68,5.83,8.84,8.39,3.94,3.04,8.26,5.67,12.96,7.18-4.29-2.34-8.08-5.41-11.49-8.86-3.15-3.29-6.06-6.86-8.71-10.64,3.89-9.36,8.56-19.42,13.96-29.92,5.99,18.44,17.17,39.37,36.85,38.03,32.48-2.23,29.69-57.34,28.35-72.21.97-.05,1.92-.12,2.9-.17,1.93-.1,3.42-1.75,3.32-3.68-.1-1.94-1.74-3.44-3.68-3.33-16.12.83-31.81,2.45-47.06,4.84,9.77-15.77,20.85-31.84,33.04-47.47,5.06,2.24,9.86,5.23,14.2,9-3.99-4.25-8.4-7.71-13.09-10.43.12-.16.24-.32.37-.48,43.3-54.99,90.75-91.84,136.34-106.53,13.75,5.19,27.03,10.91,39.71,17.08,36.67,67.85,75.58,135.65,76.03,136.42.04.07.09.12.14.19.07.12.15.24.24.34.08.1.17.19.25.28.09.1.19.19.3.28.1.08.2.15.29.22.12.07.24.14.35.2.11.06.22.11.34.16.12.05.24.1.37.14.12.04.23.07.36.09.12.03.25.05.37.07.14.01.25.02.39.02.13,0,.26,0,.39-.01s.26-.03.39-.06c.12-.02.25-.05.37-.08.14-.04.27-.09.39-.14.07-.03.15-.05.24-.08,16-7.58,30.71-7.61,41.41-.09,9.61,6.76,14.56,18.87,13.23,32.38-2.21,22.55-20.93,43.73-50.08,56.67-20.58,9.14-41.29,9.88-52.24,9.45,6.28-5.02,12.22-10.39,17.79-16.13,1.49-1.54,1.45-3.99-.09-5.48-1.53-1.48-3.98-1.44-5.48.09-37.09,38.3-91.98,60.27-150.58,60.27-30.17,0-59.48-5.88-85.88-16.85-.01-.01-.02-.02-.04-.03ZM263.49,519.29c2.89-8.42,9.81-17.85,19.96-27.34-2.86,8.07-4.84,17.14-6.22,26.55-4.78-.19-9.56.2-13.74.79ZM283.03,539.09c.96-12.66,2.54-25.48,5.5-36.66,1.71,2.05,3.93,4.03,6.7,5.31,1.69.78,3.72,1.09,5.9,1.09.85,0,1.73-.06,2.61-.14-8.13,8.35-15.29,18.31-20.71,30.4ZM318.45,528.94l-16.74-5.49c9.35-12.29,20.88-21.46,32.71-28.7-6.64,9.75-12.97,21.99-15.97,34.19ZM337.59,483.65c-6.73,3.69-13.48,7.9-19.96,12.81-6.96,3.04-16.06,5.39-19.04,4.01-3.7-1.7-5.98-5.88-6.9-7.92.69-1.78,1.42-3.49,2.22-5.12l7.02-2.24c1.66-.53,2.79-2.07,2.79-3.81v-10.05c5.77.42,11.59.65,17.44.65,5.52,0,10.99-.2,16.43-.57v12.24ZM396.37,625.09c-1.2-2.11-2.32-4.22-3.37-6.33.2.14.4.28.59.42l.09.07c2.29,1.63,4.71,3.36,7.26,4.99-1.55.27-3.07.56-4.57.85ZM465.38,590.22l4.58,3.35c-1.48,1.79-2.85,3.67-4.12,5.62l-4.27-3.12c1.35-1.97,2.63-3.93,3.81-5.85ZM445.86,620.71c3.58-3.23,6.9-6.81,9.8-10.23-1.29,3.48-2.3,7.05-3,10.71-2.11-.23-4.38-.39-6.8-.48ZM507.99,817.1c-15.9,5.08-38.42,2.93-50.32-13.79-11.54-16.18-3.5-35.94-1.99-39.3,12.95-1.43,23.09-3.78,27.03-7.17,9.88-8.52,6.28-21.94.86-42.25-2.52-9.44-5.51-20.62-8.02-34,4.66,4.39,9.96,8.09,15.76,10.93l43.13,95c-.43,16.42-13.87,26.55-26.45,30.58ZM541.4,780.03l-.93.41-38.53-84.87c.63.18,1.26.35,1.9.51l37.56,83.95ZM519.28,689.98c-30.8,0-55.87-25.06-55.87-55.88s25.07-55.88,55.87-55.88,55.89,25.07,55.89,55.88-25.06,55.88-55.89,55.88Z"/><path class="cls-1" d="M295.18,89.47c-.59-.29-1.19-.58-1.78-.86-.47-.23-.94-.46-1.41-.69-9.79-7.11-17.85-13.81-24.25-20.24-.67-.68-1.31-1.36-1.96-2.03-.13-.15-.27-.3-.42-.45-.62-.67-1.23-1.33-1.83-2-.69-.73-1.35-1.47-1.97-2.22-2.09-2.52-3.6-5.23-2.99-8.51-.16.33-.31.66-.48,1-1.52,3.11-3.29,6.41-5.25,9.87-.5.89-1.02,1.8-1.54,2.71-.58,1.01-1.16,2.02-1.77,3.06-.3-.12-.6-.24-.9-.36-.77-.31-1.54-.63-2.31-.93,2.45-5.36,4.82-10.26,7.29-14.74.16-.28.32-.56.46-.83-3.93,4.48-10.77,8.27-18.43,11.43-1.11-.41-2.19-.81-3.3-1.22,6.97-3.4,12.27-7.03,16.37-12.51,2.88-3.5,1.61-6.44-.4-8.55-3.22-3.39-9.22-4.5-14.82-5.18,4.4.38,8.73,1.05,12.94,2.09,5.43,1.24,11.52,3.98,10.23,9.34,1.83-3.17,3.66-6.16,5.41-8.98,2.48-4.02,4.67-7.73,7.15-11.16-1.09,3.45-2.78,7.19-4.49,11.26-1.2,2.86-2.5,5.9-3.99,9.13,2.17-2.68,5.69-4.93,9.5-6.07,4.68-1.49,9.16-1.82,13.93-2.22,6.47-.51,13.84-1.11,20.65-1.11-9.17.28-18.54,1.21-26.73,3.87-8.31,2.7-13.52,6.67-11.64,13.58.41,1.6,1.14,3.33,2.14,5.16.02.04.05.09.08.14.29.53.61,1.07.94,1.62.05.06.08.12.12.18.34.55.71,1.11,1.09,1.68.04.04.08.09.11.14,5.34,7.72,14.46,16.57,24.25,24.6Z"/><path class="cls-1" d="M469.96,593.57c-1.48,1.79-2.85,3.67-4.12,5.62l-4.27-3.12c1.35-1.97,2.63-3.93,3.81-5.85l4.58,3.35Z"/><path class="cls-1" d="M541.4,780.03l-.93.41-38.53-84.87c.63.18,1.26.35,1.9.51l37.56,83.95Z"/><path class="cls-1" d="M534.44,786.52c-.43,16.42-13.87,26.55-26.45,30.58-15.9,5.08-38.42,2.93-50.32-13.79-11.54-16.18-3.5-35.94-1.99-39.3,12.95-1.43,23.09-3.78,27.03-7.17,9.88-8.52,6.28-21.94.86-42.25-2.52-9.44-5.51-20.62-8.02-34,4.66,4.39,9.96,8.09,15.76,10.93l43.13,95Z"/><path class="cls-1" d="M575.17,634.1c0,30.82-25.06,55.88-55.89,55.88s-55.87-25.06-55.87-55.88,25.07-55.88,55.87-55.88,55.89,25.07,55.89,55.88Z"/><path class="cls-1" d="M144.26,617.31c-.81-4.86-1.74-9.79-2.81-14.76-6.52-30.34-16.76-56.87-28.84-74.7-6.2-9.19-12.8-16.02-19.62-20.39,10.71.68,23.85,4.19,36.31,14.76,30.31,25.74,22.02,71.41,14.96,95.09Z"/><path class="cls-1" d="M138.3,682.61c-2.37,14.8-8.34,33.11-23.35,36.34-12.38,2.66-28.52-5.76-43.17-22.54-15.92-18.22-28.39-44.28-34.25-71.51-5.9-27.46-5.15-55.09,2.11-77.79,6.54-20.44,17.91-34.24,30.41-36.93,1.56-.33,3.09-.49,4.59-.49,13.12,0,24.14,11.96,31.35,22.64,11.5,17.01,21.33,42.54,27.64,71.9,6.36,29.59,8.02,57.42,4.67,78.38Z"/><path class="cls-1" d="M550.2,305.54c-.15.62-.29,1.22-.42,1.82-.8,3.22-1.71,6.42-2.71,9.58-5.21-2.37-10.91-3.58-16.98-3.59-6.77-22.35-21.2-48.24-39.19-75.78,14.44,28.2,26.81,55.12,30.17,76.59-4.51.8-9.16,2.19-13.91,4.17-7.6-13.3-38.19-66.96-68.63-122.94,35.64,18.79,65.83,41.22,87.23,65.51l24.44,44.64Z"/><path class="cls-1" d="M180.26,423.4c-2.73-.65-5.77-1.49-9.02-2.58.41-1.36.83-2.75,1.28-4.17,2.51,2.31,5.09,4.57,7.74,6.75Z"/><path class="cls-1" d="M148.65,410.22c-2.12-1.3-4.25-2.72-6.41-4.25,1.23-.67,2.03-1.94,2.08-3.37l.21-6.27c1.25,4.89,2.61,9.52,4.12,13.89Z"/><path class="cls-1" d="M132.52,398.13c-4.78-4.31-9.49-9.28-14-15.04-8.84-11.3-12.39-27.78-8.7-40.22l3.39-6.09c2.65,20.06,10.99,46.79,19.31,61.35Z"/><path class="cls-1" d="M152.86,421.92c-1.77,12.33-7.47,23.23-15.75,31.5-.4.25-.77.58-1.08.99,0,.02-.01.04-.02.06-10.03,9.47-23.57,15.21-38.44,15.21-30.81,0-55.88-25.07-55.88-55.88s25.07-55.89,55.88-55.89c1,0,1.99.03,2.98.09.91,10.61,4.96,21.45,11.67,30.02,13.02,16.63,27.5,27.19,40.64,33.9Z"/><path class="cls-1" d="M283.45,491.95c-2.86,8.07-4.84,17.14-6.22,26.55-4.78-.19-9.56.2-13.74.79,2.89-8.42,9.81-17.85,19.96-27.34Z"/><path class="cls-1" d="M303.74,508.69c-8.13,8.35-15.29,18.31-20.71,30.4.96-12.66,2.54-25.48,5.5-36.66,1.71,2.05,3.93,4.03,6.7,5.31,1.69.78,3.72,1.09,5.9,1.09.85,0,1.73-.06,2.61-.14Z"/><path class="cls-1" d="M334.42,494.75c-6.64,9.75-12.97,21.99-15.97,34.19l-16.74-5.49c9.35-12.29,20.88-21.46,32.71-28.7Z"/><path class="cls-1" d="M337.59,471.41v12.24c-6.73,3.69-13.48,7.9-19.96,12.81-6.96,3.04-16.06,5.39-19.04,4.01-3.7-1.7-5.98-5.88-6.9-7.92.69-1.78,1.42-3.49,2.22-5.12l7.02-2.24c1.66-.53,2.79-2.07,2.79-3.81v-10.05c5.77.42,11.59.65,17.44.65,5.52,0,10.99-.2,16.43-.57Z"/><path class="cls-1" d="M548.61,326.98c-10.7-7.52-25.41-7.49-41.41.09-.09.03-.17.05-.24.08-.12.05-.25.1-.39.14-.12.03-.25.06-.37.08-.13.03-.26.05-.39.06s-.26.01-.39.01c-.14,0-.25-.01-.39-.02-.12-.02-.25-.04-.37-.07-.13-.02-.24-.05-.36-.09-.13-.04-.25-.09-.37-.14-.12-.05-.23-.1-.34-.16-.11-.06-.23-.13-.35-.2-.09-.07-.19-.14-.29-.22-.11-.09-.21-.18-.3-.28-.08-.09-.17-.18-.25-.28-.09-.1-.17-.22-.24-.34-.05-.07-.1-.12-.14-.19-.45-.77-39.36-68.57-76.03-136.42-12.68-6.17-25.96-11.89-39.71-17.08-45.59,14.69-93.04,51.54-136.34,106.53-.13.16-.25.32-.37.48,4.69,2.72,9.1,6.18,13.09,10.43-4.34-3.77-9.14-6.76-14.2-9-12.19,15.63-23.27,31.7-33.04,47.47,15.25-2.39,30.94-4.01,47.06-4.84,1.94-.11,3.58,1.39,3.68,3.33.1,1.93-1.39,3.58-3.32,3.68-.98.05-1.93.12-2.9.17,1.34,14.87,4.13,69.98-28.35,72.21-19.68,1.34-30.86-19.59-36.85-38.03-5.4,10.5-10.07,20.56-13.96,29.92,2.65,3.78,5.56,7.35,8.71,10.64,3.41,3.45,7.2,6.52,11.49,8.86-4.7-1.51-9.02-4.14-12.96-7.18-3.16-2.56-6.11-5.38-8.84-8.39-1.44,3.56-2.74,7.02-3.94,10.35,5.02,4.8,10.33,9.34,15.91,13.57.56-1.67,1.19-3.33,1.88-4.96-.29,1.87-.65,3.73-1.1,5.56,1.41,1.06,2.85,2.11,4.31,3.14.57.23,1.07.58,1.48,1.02.39.28.81.57,1.21.85.85-3.61,2.02-7.14,3.5-10.57-.59,3.79-1.51,7.48-2.75,11.08,10.58,7.16,21.99,13.32,34,18.43.55.1,1.08.31,1.56.65.02.01.03.02.04.03,26.4,10.97,55.71,16.85,85.88,16.85,58.6,0,113.49-21.97,150.58-60.27,1.5-1.53,3.95-1.57,5.48-.09,1.54,1.49,1.58,3.94.09,5.48-5.57,5.74-11.51,11.11-17.79,16.13,10.95.43,31.66-.31,52.24-9.45,29.15-12.94,47.87-34.12,50.08-56.67,1.33-13.51-3.62-25.62-13.23-32.38ZM207.35,432.7c.82-5.35,2.31-10.53,4.46-15.51-.83,5.36-2.31,10.54-4.46,15.51ZM282.78,390.45c-2.04,0-3.7-.98-3.7-2.19s1.66-2.2,3.7-2.2,3.71.98,3.71,2.2-1.66,2.19-3.71,2.19ZM309.16,431.7c-1.04,6.01-3.43,9.68-6.29,9.68-.09,0-.17-.01-.26-.01-3.09-.24-4.72-4.31-4.84-12.1-.09-5.78,1.6-16.09,2.31-20.1l-5.89-1.63c-.96-.26-1.53-1.26-1.26-2.23.27-.97,1.27-1.53,2.23-1.27l7.47,2.07s.02.01.03.01l7.46,2.06c.82.23,1.38,1,1.33,1.85-.03.51-.72,12.51-2.29,21.67ZM457.21,254.8c-29.19-11.48-60.44-17.08-91.79-16.55,30.25-4.86,65.13,1.43,91.79,16.55ZM411.31,432.7c.82-5.35,2.32-10.53,4.46-15.51-.82,5.36-2.31,10.54-4.46,15.51ZM420.7,432.7c.82-5.35,2.31-10.53,4.46-15.51-.83,5.36-2.31,10.54-4.46,15.51ZM430.08,432.7c.83-5.35,2.32-10.53,4.46-15.51-.82,5.36-2.31,10.54-4.46,15.51ZM477.95,345.5c-.43,1.6-1.89,2.65-3.47,2.65-.31,0-.63-.04-.95-.12-2.23-.61-4.47-1.2-6.72-1.77-.24,2.75-.65,5.55-1.26,8.38-4.86,21.75-19.1,41.1-37.99,52.73-4.71,2.81-9.74,5.12-15.01,6.4,4.95-2.2,9.48-5.08,13.65-8.37,18.29-14.57,32.43-37.33,33.62-60.87-5.69-1.36-11.45-2.64-17.28-3.81-2.68,14.19-14.08,61.73-47,61.75-39.1.01-39.33-56.99-38.72-71.8-6.87-.28-13.79-.47-20.78-.53-1.98-.02-3.58-1.65-3.56-3.64s1.65-3.54,3.63-3.56c43.95.4,85.46,5.16,123.66,14.16-.33-4.68-1.18-9.35-2.66-13.98-7.76-25.18-32.03-41.8-57.34-46.33-20.52-3.9-43.83-.81-59.93,13.48,15.02-16.54,39.25-21.13,60.7-18.21,35.65,4.53,65.53,31.65,66.49,66.82,2.82.71,5.62,1.44,8.4,2.2,1.92.52,3.05,2.5,2.52,4.42ZM540.72,362.47c-.79.89-1.88,1.34-2.98,1.34-.95,0-1.91-.34-2.67-1.02-3.55-3.18-7.29-5.66-11.26-7.47-7.4,18.24-15.93,38.41-30.18,51.71-.78.73-1.76,1.08-2.73,1.08-1.07,0-2.14-.42-2.93-1.27-1.51-1.61-1.42-4.14.19-5.65,12.89-12.03,21.02-31.09,28.06-48.44-3.39-.79-6.95-1.15-10.69-1.09h-.07c-2.18,0-3.96-1.75-3.99-3.94-.04-2.21,1.72-4.03,3.93-4.06,13.41-.23,24.87,4.09,35.01,13.17,1.64,1.47,1.78,4,.31,5.64Z"/><path class="cls-1" d="M307.73,411.29c-.23,3.51-.92,12.67-2.15,19.8-.72,4.19-2.06,6.14-2.66,6.58-.35-.44-1.42-2.27-1.52-8.45-.08-5.26,1.48-14.95,2.19-19.08l4.14,1.15Z"/><path class="cls-1" d="M326.22,153.48c-63.86-15.4-127.63-17.9-182.73-7.83-13.48,24.77-30.85,61.61-34.5,92.62-.6,5.18-1.09,10.28-1.46,15.27,2.43-19.08,7.27-37.48,15.08-55.01-8.37,31.3-13.93,63.58-16.13,97.01.34,14.66,1.32,26.34,2.04,33.21l4.38-7.89c.9-1.62,2.8-2.41,4.59-1.9,1.79.51,3,2.18,2.9,4.04-.78,15.89,7.67,47.93,16.39,66.14l.98-27.73c.06-2.06,1.7-3.72,3.75-3.85,2.05-.13,3.88,1.33,4.2,3.36,3.55,22.21,7.47,40.71,13.78,55.17,1.44.69,2.87,1.32,4.27,1.91.83-2.82,1.77-5.75,2.81-8.8.04-.76.29-1.51.75-2.15,1.79-5.03,3.83-10.33,6.14-15.87.69-1.67,1.42-3.36,2.15-5.07,4.5-10.34,9.85-21.41,15.98-32.88,4.13-7.72,8.6-15.62,13.4-23.62,10.37-17.24,22.31-34.91,35.56-52.08.54-.72,1.11-1.43,1.67-2.15.48-.62.95-1.23,1.44-1.85,24.95-31.68,51.25-57.59,78.16-77.01,17.52-12.62,35.04-22.28,52.42-28.92-15.54-5.41-31.6-10.16-48.02-14.12ZM130.69,353.94c-10.76-59.41-7.68-116.21,8.73-170.56-9.63,53.9-12.14,110.93-8.73,170.56Z"/></g></svg>