<?xml version="1.0" encoding="UTF-8"?><svg id="_レイヤー_2" xmlns="http://www.w3.org/2000/svg" viewBox="0 0 1056 888.94"><defs><style>.cls-1{fill:#c8531c;}</style></defs><g id="_レイヤー_1-2"><path class="cls-1" d="M846.52,888.94c-1.58,0-3.16-.02-4.74-.05-53.19-1.17-103.65-22.64-142.07-60.45-38.43-37.83-60.68-87.93-62.62-141.07-.89-24.32,2.28-48.13,9.44-70.77,24.05-76.13,18.86-158-14.62-230.53-9.04-19.59-25.98-34.86-46.47-41.9-20.39-7-42.03-5.5-60.95,4.26-35.98,18.56-66.29,46.54-87.67,80.92-.16.26-.33.5-.5.75-.08.12-.16.23-.24.35-1.05,1.65-1.95,3-2.83,4.25-.17.24-.34.46-.51.69l-.26.35c-1.97,2.7-4.12,5.37-6.4,7.92-.62.7-1.25,1.39-1.89,2.07-.96,1.02-2.11,2.22-3.37,3.43-1.23,1.19-2.6,2.43-4.18,3.8-1.06.91-2.19,1.84-3.47,2.85-1.46,1.15-2.93,2.25-4.36,3.26l-.44.31c-.67.47-1.35.95-2.04,1.4-2.27,1.51-4.58,2.91-6.83,4.16-.37.2-.74.39-1.1.58-.19.1-.39.2-.58.3-2.1,1.11-4.29,2.17-6.51,3.14l-.56.25c-.39.18-.79.35-1.18.52-2.61,1.09-5.31,2.08-8.02,2.94-.39.12-.78.24-1.17.35l-.57.17c-2.54.76-5.1,1.42-7.59,1.96-.15.03-.3.07-.46.11-.29.07-.58.14-.87.2-2.75.55-5.6.99-8.73,1.34-.57.06-1.15.12-1.73.17l-.28.03c-3.49.32-6.41.46-9.19.46-55.62,0-100.87-45.25-100.87-100.87,0-1.96.05-3.86.16-5.67,1.12-20.05-1.79-39.79-8.64-58.66-7.13-19.61-23.48-32.98-43.76-35.77-20.48-2.82-40.05,5.74-52.36,22.9-15.08,21.03-24.4,45.77-26.93,71.54-1.75,17.79-11.51,33.72-26.78,43.72-15.08,9.88-33.62,12.34-50.84,6.76C16.54,413.49-.28,390,0,364.25c.31-27.68,19.31-47.44,38-54.75,58.92-23.01,96.69-80.93,93.98-144.12-.05-1.29-.08-2.48-.08-3.66,0-45.05,36.65-81.69,81.69-81.69,2.64,0,5.36.14,8.09.41.96.1,1.85.24,2.7.38.36.06.73.12,1.09.17.36.05.72.1,1.07.15.95.13,1.92.27,2.95.47,1.43.28,2.77.64,4.07.98l.7.18c.29.08.58.15.88.22.63.15,1.26.31,1.88.5,1.8.54,3.48,1.17,5.1,1.78.24.09.48.17.71.26.48.17.95.34,1.42.53,1.86.75,3.61,1.6,5.1,2.33.21.1.41.19.6.29.41.19.83.39,1.23.6,1.79.93,3.46,1.93,4.86,2.79l.56.34c.4.24.79.47,1.18.73,1.34.87,2.71,1.83,4.46,3.13l.44.33c.45.33.9.66,1.34,1.01,1.21.95,2.46,2.02,3.95,3.35l.3.27c.53.48,1.07.95,1.59,1.45,1.05,1.01,2.16,2.13,3.38,3.44.67.72,1.35,1.45,2.01,2.21.9,1.04,1.81,2.15,2.79,3.41.75.96,1.43,1.88,2.08,2.78.76,1.07,1.5,2.17,2.22,3.29.68,1.06,1.36,2.17,2.05,3.38.66,1.14,1.22,2.17,1.72,3.15.62,1.21,1.25,2.5,1.9,3.94.45,1,.89,2,1.3,3.01.53,1.3,1.04,2.7,1.61,4.4.33.99.67,1.97.96,2.97.4,1.35.77,2.79,1.21,4.69l.08.33c.21.91.42,1.81.6,2.73.31,1.62.53,3.24.73,4.74l.07.52c.12.94.25,1.87.33,2.82,0,.11.03.21.04.31.05.33.09.67.11,1.01,2.14,30.1,13.29,58.47,32.23,82.02,18.21,22.65,50.12,28.48,75.9,13.87,50.75-28.78,87.84-75.41,104.43-131.33C526.64,49.48,591.1,0,664.43,0c89.5,0,162.32,72.82,162.32,162.32,0,.09,0,.18,0,.27,0,.08,0,.18,0,.28,0,3.69-.16,7.54-.5,12.14l-.07.86c-.37,4.65-.93,9.23-1.65,13.61-19.33,122.57,34.79,246.46,137.86,315.58h0c58.61,39.31,93.6,104.48,93.6,174.35,0,56.76-22.41,109.93-63.09,149.74-39.53,38.67-91.36,59.8-146.39,59.8ZM559.73,329.81c9.68,0,19.44,1.62,28.95,4.89,23.06,7.92,42.12,25.12,52.3,47.17,34.52,74.8,39.88,159.23,15.07,237.74-6.81,21.54-9.83,44.21-8.98,67.39,3.86,105.28,89.48,189.57,194.92,191.89,54.04,1.19,105.19-19.02,143.92-56.9,38.75-37.9,60.09-88.54,60.09-142.59,0-66.52-33.34-128.6-89.17-166.04h0c-52.37-35.11-93.38-84.22-118.61-142-25.23-57.77-33.37-121.21-23.55-183.48.69-4.13,1.21-8.43,1.56-12.81l.06-.81c.32-4.32.47-7.94.47-11.38,0-.09,0-.21,0-.34,0-.11,0-.22,0-.33-.06-83.94-68.37-152.21-152.32-152.21-68.84,0-129.34,46.46-147.14,112.99l-.04.13c-17.32,58.43-56.07,107.18-109.11,137.25-30.06,17.04-67.33,10.18-88.62-16.3-20.22-25.15-32.12-55.44-34.41-87.58,0-.11-.03-.21-.04-.31-.04-.28-.08-.56-.1-.84-.07-.79-.18-1.59-.28-2.38l-.07-.54c-.18-1.36-.38-2.8-.63-4.16-.15-.78-.33-1.56-.51-2.33l-.08-.34c-.39-1.69-.72-2.96-1.06-4.11-.26-.88-.55-1.74-.84-2.6-.51-1.51-.96-2.74-1.41-3.86-.36-.89-.75-1.77-1.14-2.64-.58-1.28-1.12-2.41-1.67-3.46-.44-.85-.93-1.75-1.51-2.76-.61-1.06-1.2-2.03-1.8-2.96-.64-.99-1.29-1.96-1.95-2.89-.56-.78-1.15-1.58-1.82-2.44-.87-1.12-1.67-2.1-2.45-3-.57-.66-1.17-1.3-1.77-1.94-1.11-1.19-2.05-2.15-2.97-3.02-.44-.42-.9-.82-1.35-1.23l-.31-.28c-1.33-1.19-2.43-2.12-3.47-2.94-.35-.28-.71-.54-1.07-.8l-.49-.36c-1.56-1.17-2.77-2.01-3.92-2.76-.29-.19-.58-.36-.87-.53-.22-.13-.45-.27-.67-.4-1.25-.76-2.73-1.65-4.26-2.45-.29-.15-.57-.28-.85-.41-.25-.12-.51-.24-.76-.36-1.34-.65-2.91-1.41-4.47-2.04-.32-.13-.65-.25-.98-.36-.3-.11-.6-.21-.9-.33-1.46-.55-2.98-1.12-4.46-1.56-.45-.14-.91-.24-1.37-.36-.35-.09-.71-.17-1.06-.26l-.72-.19c-1.2-.32-2.34-.62-3.46-.84-.73-.15-1.52-.25-2.36-.37-.39-.05-.78-.11-1.17-.17-.41-.06-.82-.13-1.24-.19-.74-.12-1.43-.23-2.09-.3-2.41-.24-4.79-.36-7.1-.36-39.53,0-71.69,32.16-71.69,71.69,0,1.04.02,2.1.07,3.24,2.89,67.45-37.43,129.29-100.33,153.85-15.57,6.08-31.39,22.52-31.64,45.54-.24,21.41,13.74,40.95,33.99,47.51,14.33,4.64,29.75,2.6,42.28-5.61,12.72-8.33,20.85-21.58,22.3-36.33,2.71-27.52,12.65-53.93,28.76-76.39,14.51-20.23,37.63-30.32,61.85-26.98,24.01,3.31,43.38,19.11,51.79,42.26,7.32,20.14,10.43,41.22,9.23,62.64-.09,1.62-.14,3.34-.14,5.1,0,50.11,40.77,90.87,90.87,90.87,2.47,0,5.1-.13,8.28-.42l.29-.03c.51-.05,1.02-.09,1.53-.15,2.84-.32,5.41-.71,7.86-1.2.17-.03.35-.08.52-.12.22-.05.45-.11.67-.16,2.24-.48,4.53-1.07,6.83-1.76l.66-.19c.3-.09.61-.17.91-.27,2.44-.78,4.87-1.67,7.22-2.65.31-.13.62-.27.92-.4l.65-.29c2-.88,3.97-1.83,5.86-2.83.24-.13.48-.25.72-.37.27-.14.54-.27.8-.42,2.01-1.11,4.09-2.38,6.15-3.74.61-.4,1.2-.82,1.79-1.23l.44-.31c1.27-.9,2.6-1.89,3.92-2.94,1.17-.92,2.2-1.76,3.13-2.57,1.43-1.24,2.67-2.36,3.77-3.43,1.11-1.07,2.16-2.16,3.03-3.09.57-.61,1.14-1.24,1.71-1.88,2.06-2.3,4-4.71,5.78-7.15.13-.18.26-.35.4-.53.1-.14.21-.27.31-.41.78-1.09,1.59-2.31,2.55-3.83.14-.22.28-.43.42-.63.09-.13.17-.25.26-.38,22.33-35.91,54-65.14,91.58-84.52,12.52-6.46,26.11-9.72,39.83-9.72Z"/></g></svg>