<?xml version="1.0" encoding="UTF-8"?><svg id="_レイヤー_2" xmlns="http://www.w3.org/2000/svg" viewBox="0 0 1090.66 743.03"><defs><style>.cls-1{fill:#dd5519;}</style></defs><g id="_レイヤー_1-2"><path class="cls-1" d="m629.71,742.68h-39.92v-23.04h39.92c3.79,0,6.88-3.09,6.88-6.88v-56.51c0-3.79-3.09-6.88-6.88-6.88h-5.83c-2.48,0-4.78,1.34-6,3.51l-41.93,74.55c-5.29,9.41-15.29,15.25-26.08,15.25-16.5,0-29.92-13.42-29.92-29.92v-56.51c0-16.5,13.42-29.92,29.92-29.92h39.92v23.04h-39.92c-3.79,0-6.88,3.09-6.88,6.88v56.51c0,3.79,3.09,6.88,6.88,6.88,2.48,0,4.78-1.34,6-3.51l41.93-74.55c5.3-9.41,15.29-15.25,26.08-15.25h5.83c16.5,0,29.92,13.42,29.92,29.92v56.51c0,16.5-13.42,29.92-29.92,29.92Z"/><path class="cls-1" d="m163.01,742.68h-23.04v-87.64c0-1.6-1.3-2.9-2.9-2.9-1.1,0-2.1.61-2.59,1.6l-36.02,72.04c-3.23,6.46-9.73,10.48-16.96,10.48s-13.73-4.02-16.96-10.48l-36.02-72.03c-.49-.99-1.49-1.6-2.59-1.6-1.6,0-2.9,1.3-2.9,2.9v87.64H0v-87.64c0-14.3,11.64-25.94,25.94-25.94,9.89,0,18.78,5.49,23.2,14.34l32.37,64.73,32.37-64.73c4.42-8.84,13.31-14.34,23.2-14.34,14.3,0,25.94,11.64,25.94,25.94v87.64Z"/><path class="cls-1" d="m201.91,742.68c-16,0-29.02-13.02-29.02-29.02v-58.32c0-16,13.02-29.02,29.02-29.02h99.05v23.04h-99.05c-3.3,0-5.97,2.68-5.97,5.97v58.32c0,3.3,2.68,5.97,5.97,5.97s5.97-2.68,5.97-5.97v-23.33c0-16,13.02-29.02,29.02-29.02h40.73v23.04h-40.73c-3.3,0-5.97,2.68-5.97,5.97v23.33c0,16-13.02,29.02-29.02,29.02Z"/><rect class="cls-1" x="274.72" y="719.64" width="67.07" height="23.04"/><path class="cls-1" d="m688.5,742.68h-23.04v-84.42c0-17.61,14.32-31.93,31.93-31.93h75.82c17.61,0,31.93,14.32,31.93,31.93s-14.32,31.93-31.93,31.93h-48.66c-1.69,0-3.06,1.37-3.06,3.06s1.37,3.06,3.06,3.06h22.21c6.76,0,13.13,2.56,18.01,7.21l25.12,20.71-14.66,17.78-26.31-21.75c-.58-.58-1.34-.9-2.16-.9h-22.21c-14.39,0-26.1-11.71-26.1-26.1s11.71-26.1,26.1-26.1h48.66c4.9,0,8.89-3.99,8.89-8.89s-3.99-8.89-8.89-8.89h-75.82c-4.9,0-8.89,3.99-8.89,8.89v84.42Z"/><path class="cls-1" d="m350.82,626.33h23.04v90.42c0,1.6,1.3,2.89,2.89,2.89,1.1,0,2.1-.61,2.59-1.6l36.02-81.23c3.23-6.46,9.73-10.48,16.96-10.48,7.23,0,13.73,4.02,16.96,10.48l36.01,81.23c.49.99,1.49,1.6,2.59,1.6,1.6,0,2.9-1.3,2.9-2.89v-90.42h23.04v90.42c0,14.3-11.64,25.94-25.94,25.94-9.89,0-18.78-5.49-23.2-14.34l-32.37-73.93-32.37,73.93c-4.42,8.84-13.31,14.34-23.2,14.34-14.3,0-25.94-11.64-25.94-25.94v-90.42Z"/><path class="cls-1" d="m1057.95,742.68h-106.72v-23.04h106.72c5.33,0,9.67-4.34,9.67-9.67v-4.28c0-5.33-4.34-9.67-9.67-9.67h-74.01c-18.03,0-32.71-14.67-32.71-32.71v-4.28c0-18.03,14.67-32.71,32.71-32.71h106.72v23.04h-106.72c-5.33,0-9.67,4.34-9.67,9.67v4.28c0,5.33,4.34,9.67,9.67,9.67h74.01c18.03,0,32.71,14.67,32.71,32.71v4.28c0,18.03-14.67,32.71-32.71,32.71Z"/><path class="cls-1" d="m856.16,642.27l-16.29-16.29-22.28,22.28c-5.48,5.48-8.5,12.77-8.5,20.52v74.26h23.04v-74.26c0-1.57.64-3.11,1.75-4.22l22.28-22.28Z"/><path class="cls-1" d="m906.68,696.31h-45.24c-3.3,0-5.97-2.68-5.97-5.97s2.68-5.97,5.97-5.97h33.58c7.75,0,15.04-3.02,20.52-8.5l29.87-29.87-16.3-16.3-29.87,29.87c-1.11,1.11-2.65,1.75-4.22,1.75h-33.58c-16,0-29.02,13.02-29.02,29.02s13.02,29.02,29.02,29.02h45.24c1.6,0,3.1.62,4.22,1.75l18.2,18.2,16.3-16.3-18.21-18.2c-5.48-5.48-12.77-8.5-20.52-8.5Z"/><path class="cls-1" d="m815.43,315.53c-65.79-44.11-99.95-122.39-87.62-200.6.45-2.72.78-5.47,1-8.26.01-.17.03-.34.04-.51.18-2.43.3-4.88.3-7.36,0-.07,0-.14,0-.21,0-.05,0-.09,0-.14,0-54.28-44.16-98.45-98.45-98.45-45.5,0-83.87,31.03-95.1,73.03-10.73,36.19-35.02,66.02-66.82,84.05-17.27,9.79-39.04,6.03-51.48-9.44-11.96-14.88-19.44-33.27-20.85-53.07-.02-.26-.07-.51-.09-.77-.06-.66-.15-1.31-.24-1.96-.12-.94-.25-1.87-.43-2.78-.12-.61-.26-1.2-.4-1.8-.21-.93-.44-1.85-.71-2.75-.17-.59-.37-1.16-.56-1.74-.29-.87-.6-1.73-.95-2.58-.24-.6-.5-1.18-.76-1.77-.35-.78-.72-1.56-1.12-2.32-.32-.62-.66-1.24-1.01-1.84-.39-.67-.79-1.34-1.21-1.99-.42-.66-.85-1.3-1.3-1.93-.4-.56-.8-1.1-1.22-1.64-.53-.68-1.07-1.35-1.64-2-.39-.44-.78-.87-1.18-1.3-.64-.69-1.3-1.37-1.98-2.02-.36-.35-.74-.68-1.11-1.01-.76-.68-1.52-1.34-2.32-1.97-.34-.27-.7-.52-1.05-.79-.86-.64-1.72-1.26-2.62-1.84-.34-.22-.68-.41-1.03-.62-.94-.57-1.88-1.13-2.86-1.64-.35-.18-.72-.34-1.07-.52-.99-.48-1.97-.95-3-1.37-.41-.17-.84-.3-1.26-.46-.99-.37-1.98-.74-3-1.04-.53-.16-1.08-.28-1.62-.42-.93-.24-1.85-.5-2.8-.69-.78-.15-1.57-.24-2.36-.36-.74-.11-1.48-.25-2.23-.33-1.57-.16-3.15-.24-4.75-.24-26.47,0-47.99,21.53-47.99,47.99,0,.72.02,1.44.05,2.16,1.75,40.88-22.69,78.35-60.8,93.24-10.76,4.2-21.62,15.52-21.79,31.38-.16,14.7,9.45,28.21,23.43,32.74,21.43,6.94,42.47-8.31,44.5-28.92,1.68-17.11,7.87-32.96,17.43-46.29,17.77-24.77,55.22-19.84,65.63,8.81,4.34,11.93,6.33,24.81,5.59,37.95-.06,1.11-.09,2.24-.09,3.37,0,33.08,26.91,60,60,60,1.84,0,3.66-.11,5.46-.28.4-.04.8-.07,1.2-.12,1.75-.19,3.48-.45,5.19-.79.27-.05.52-.12.79-.18,1.52-.33,3.03-.72,4.51-1.16.35-.1.69-.2,1.04-.31,1.62-.52,3.21-1.1,4.77-1.75.35-.15.69-.31,1.04-.46,1.31-.58,2.6-1.2,3.87-1.87.33-.18.67-.34,1-.52,1.39-.77,2.74-1.6,4.07-2.47.5-.33.98-.67,1.46-1.01.88-.62,1.75-1.27,2.6-1.94.7-.55,1.39-1.11,2.06-1.69.85-.73,1.68-1.48,2.49-2.27.69-.66,1.34-1.34,2-2.04.38-.41.75-.82,1.13-1.24,1.35-1.51,2.62-3.08,3.81-4.72.15-.21.31-.41.46-.62.59-.83,1.14-1.67,1.69-2.53.14-.22.3-.44.44-.66,13.95-22.44,33.48-40.11,56.09-51.76,26.4-13.62,59.04-1.95,71.49,25.02,20.84,45.14,24.84,97.3,9.29,146.52-4.36,13.8-6.31,28.38-5.76,43.23,2.46,67.13,57.88,121.62,125.04,123.1,71.88,1.58,130.86-56.43,130.86-127.97,0-42.68-21.38-82.49-57.19-106.51Z"/></g></svg>